<svg id="Layer_1" data-name="Layer 1" xmlns="http://www.w3.org/2000/svg" viewBox="0 0 2560.75 579.69"><defs><style>.cls-1{fill:none;stroke:#333333;stroke-linecap:round;stroke-linejoin:round;stroke-width:1px;}</style></defs><title>graph</title><path class="cls-1" d="M1586.25,533c-35.66,12.2-66,32.82-92.74,59-11.42,11.18-21.19,23.84-31.5,36-15.78,18.6-34.24,33.7-56.49,44-13.71,6.37-27.85,10.88-43,12-4.17.32-8.22,1.7-12.51,1.46-27.41-1.53-52.41-9.54-74-27-21.42-17.33-34.64-40.06-44-65.5-8.1-21.92-16-44-25.13-65.44-9.59-22.48-20-44.64-35.28-64.11A131.92,131.92,0,0,0,1128,427.06a144.87,144.87,0,0,0-26-10c-24.14-7-45.89-18.63-66-33.58-31.61-23.52-55.47-53.87-75.88-87.08-8.74-14.21-16.25-29.19-24.09-43.94-11.42-21.48-23.11-42.74-39.5-61a115.26,115.26,0,0,0-63-36.47c-21.16-4.57-42.49-4.76-64-3.15a185.12,185.12,0,0,0-37,6.11c-11.67,3.31-22.56,8.51-33.45,13.62a209.09,209.09,0,0,1-59,17.35,451.53,451.53,0,0,1-70.49,4.93c-29.54-.34-58-6.15-84.48-19.91-15.14-7.87-29-17.73-43-27.42C425.33,135,408.4,124.08,389,117.42a180.58,180.58,0,0,0-45.53-9c-23.82-1.8-47.21.31-69.44,9.2-16.61,6.64-31.26,16.78-44.59,28.82-19,17.14-35.29,36.74-52.41,55.59-19.12,21-39.49,40.6-63.58,55.92a224.1,224.1,0,0,1-79,31.06c-23.62,4.51-45.93,12-64,28.92C-40.35,328.05-48.2,340-54,353.5-64.47,377.84-69,404.05-77.58,429c-4.3,12.47-9.77,24.45-17.91,35-14.06,18.27-33,28.56-55,34-20.24,5-40.75,6.08-61.51,5.06-18.19-.89-35.57-4.53-52-12.54-17.58-8.56-31.13-21.43-42-37.5C-320.71,431.39-329,407-336.89,382.46c-7.35-22.78-13.55-45.95-23.13-68-9.75-22.4-21.94-43-42.48-57.51-15.19-10.71-32.19-16.48-50.49-19.06-15.66-2.21-31.39-2-47-.75-24.72,1.91-48.87,6.72-71,18.79-17.27,9.4-31.35,22.22-43.05,38-10.85,14.62-19.34,30.67-28.95,46-8.81,14.1-18.44,27.38-32.42,37.1-11.72,8.15-24.64,12.08-38.55,14a99.37,99.37,0,0,1-38-1.68c-16.25-4.08-30.19-12.64-42.53-23.9-16-14.62-28.62-32-40.56-50-19.51-29.38-36.67-60.33-58-88.49-15.29-20.19-32.38-38.71-53.93-52.55a139.52,139.52,0,0,0-25-13c-.26-.1-.34-.64-.51-1" transform="translate(973.5 -106.87)" vector-effect="non-scaling-stroke"/></svg>