<svg id="Icons" xmlns="http://www.w3.org/2000/svg" width="2560" height="1600" viewBox="0 0 2560 1600">
  <metadata><?xpacket begin="﻿" id="W5M0MpCehiHzreSzNTczkc9d"?>
<x:xmpmeta xmlns:x="adobe:ns:meta/" x:xmptk="Adobe XMP Core 5.6-c142 79.160924, 2017/07/13-01:06:39        ">
   <rdf:RDF xmlns:rdf="http://www.w3.org/1999/02/22-rdf-syntax-ns#">
      <rdf:Description rdf:about=""/>
   </rdf:RDF>
</x:xmpmeta>
                                                                                                    
                                                                                                    
                                                                                                    
                                                                                                    
                                                                                                    
                                                                                                    
                                                                                                    
                                                                                                    
                                                                                                    
                                                                                                    
                                                                                                    
                                                                                                    
                                                                                                    
                                                                                                    
                                                                                                    
                                                                                                    
                                                                                                    
                                                                                                    
                                                                                                    
                                                                                                    
                           
<?xpacket end="w"?></metadata>
<defs>
    <style>
      .cls-1 {
        fill: #f2f2f0;
        fill-rule: evenodd;
      }
    </style>
  </defs>
  <g id="Logo">
    <path id="R_Logo" data-name="R Logo" class="cls-1" d="M1642.97,1180.9c-7.91-1.13-15.8-3.39-22.58-7.9-7.9-3.39-14.67-9.04-21.45-13.55a324.118,324.118,0,0,1-45.15-42.92c-4.51-5.64-9.03-10.16-12.41-15.81-18.06-21.45-35-44.04-51.93-66.62-31.61-44.044-62.08-86.957-92.56-131-14.68-22.585-30.48-44.042-45.15-65.5-9.03-12.423-18.06-24.845-25.96-38.4,80.14-23.714,174.96-80.178,174.96-215.69,0-211.175-287.84-198.753-287.84-198.753H906.991v20.327c24.835,27.1,56.442,66.628,91.432,112.927,31.607,41.783,66.6,89.213,101.6,138.9,32.73,45.171,65.47,91.471,98.2,137.77H1002.94V1109.76c0,4.52,0,10.16-1.13,14.68-10.158,73.4-94.819,70.01-94.819,70.01v15.81H1224.18v-22.58c-3.38,0-115.13,21.45-119.65-74.54V817.277h109.49q27.105,40.654,54.19,77.92c30.47,45.171,62.08,89.212,93.69,133.253,21.45,30.49,42.89,60.98,65.47,91.47,31.6,42.91,65.47,75.66,119.65,86.95,30.48,5.65,60.95,9.04,91.43,9.04h9.03l5.65-32.75C1649.74,1183.16,1646.35,1182.03,1642.97,1180.9ZM1304.33,769.848c-69.99-99.376-141.1-201.011-204.31-285.706l-59.83-79.049H1212.9c185.12,0,178.34,182.941,178.34,202.14,0,93.728-42.89,141.159-85.78,164.873C1305.46,770.977,1304.33,770.977,1304.33,769.848Z"/>
  </g>
</svg>
